<svg version="1.1" xmlns="http://www.w3.org/2000/svg" xmlns:xlink="http://www.w3.org/1999/xlink" width="729" height="1267"><desc>Dtitle%20This%20is%20a%20title%0A%0Aactor%20User%0Aboundary%20Log%20in%0Aboundary%20Registration%0Adatabase%20Database%0Aboundary%20App%0A%0Aactivate%20User%0Aactivate%20Log%20in%0Aactivate%20Database%0A%0AUser%20-%3ELog%20in%3AInsert%20log%20in%20details%0ALog%20in%20-%3EDatabase%3AAuthentication%20with%20login%20details%0ADatabase%20--%3EUser%3AUser%20authenticated%0Aactivate%20App%0AUser%20-%3EApp%3A%20Redirected%20to%20app%20%0Adeactivate%20App%0Aalt%20authenticated%20user%0ADatabase%20--%3ELog%20in%3A%20User%20authenticated%0Aactivate%20App%0AUser%20-%3EApp%3A%20Redirected%20to%20app%20%0Adeactivate%20App%0Aelse%0ADatabase%20--%3ELog%20in%3A%20Authenticated%20failed%0ALog%20in%20-%3EDatabase%3AUser%20exist%3F%20%0Aalt%20user%20do%20not%20exist%0ADatabase%20--%3ELog%20in%3AUser%20not%20exist%0ALog%20in%20-%3EUser%3A%20Want%20register%3F%0Aelse%20%0ADatabase%20--%3ELog%20in%3A%20User%20exist%0Adeactivate%20Database%0ALog%20in%20-%3EUser%3A%20Invalid%20credential%20%0Aend%0Aend%20%0AUser%20-%3ELog%20in%3A%20User%20click%20sind%20up%0ALog%20in%20-%3ERegistration%3A%20Redirected%20to%20registration%0Adeactivate%20Log%20in%0Aactivate%20Registration%0ARegistration%20-%3EUser%3A%20Request%20details%0AUser%20--%3ERegistration%3A%20Details%20entered%20%0ARegistration%20-%3EDatabase%3A%20Register%20user%20%0Aactivate%20Database%0Aalt%20user%20registered%0ADatabase%20--%3ERegistration%3ARegistration%20succese%0ARegistration%20-%3EUser%3A%20You%20have%20been%20registered%0Aelse%20%0ADatabase%20--%3ERegistration%3A%20Registration%20failed%0ARegistration%20-%3EUser%3A%20Failed%2C%20check%20the%20entered%20data%0Adeactivate%20Database%0Adeactivate%20User%0Aend%0ARegistration%20-%3EApp%3A%20Redirected%20to%20app%0A%0A%0A%0A%0A%0A%0A%0A%0A%0A%0A%0A</desc><defs/><g><g/><g/><g/><g/><g/><g/><g/><g/><g/><g/><g/><g/><g/><g/><g/><g/><g/><g/><g/><g/><g/><g/><g><rect fill="white" stroke="none" x="0" y="0" width="729" height="1267"/></g><g/><g><path fill="none" stroke="black" paint-order="fill stroke markers" d=" M 82.9325706 74.50109258900001 L 82.9325706 1267.3478997190002" stroke-miterlimit="10" stroke-width="1.1518412583333333" stroke-dasharray="10.632380846153845,4.607365033333333"/><path fill="none" stroke="black" paint-order="fill stroke markers" d=" M 233.66827346666668 74.50109258900001 L 233.66827346666668 1267.3478997190002" stroke-miterlimit="10" stroke-width="1.1518412583333333" stroke-dasharray="10.632380846153845,4.607365033333333"/><path fill="none" stroke="black" paint-order="fill stroke markers" d=" M 418.4176482083334 74.50109258900001 L 418.4176482083334 1267.3478997190002" stroke-miterlimit="10" stroke-width="1.1518412583333333" stroke-dasharray="10.632380846153845,4.607365033333333"/><path fill="none" stroke="black" paint-order="fill stroke markers" d=" M 580.485382325 74.50109258900001 L 580.485382325 1267.3478997190002" stroke-miterlimit="10" stroke-width="1.1518412583333333" stroke-dasharray="10.632380846153845,4.607365033333333"/><path fill="none" stroke="black" paint-order="fill stroke markers" d=" M 660.1011953708334 74.50109258900001 L 660.1011953708334 1267.3478997190002" stroke-miterlimit="10" stroke-width="1.1518412583333333" stroke-dasharray="10.632380846153845,4.607365033333333"/></g><g><g><path fill="white" stroke="black" paint-order="fill stroke markers" d=" M 90.81116480700001 16.033630316000007 A 7.878594207 7.878594207 0 1 1 90.81116086770324 16.0257517231061 M 82.9325706 23.912224523000006 L 82.9325706 40.775180545000005 M 72.980662128 29.993946367000007 L 92.884479072 29.993946367000007 M 82.9325706 40.775180545000005 L 72.980662128 56.53236895900001 M 82.9325706 40.775180545000005 L 92.884479072 56.53236895900001" stroke-miterlimit="10" stroke-width="2.3497561670000002" stroke-dasharray=""/></g><g><g/><text fill="black" stroke="none" font-family="sans-serif" font-size="9pt" font-style="normal" font-weight="normal" text-decoration="normal" x="70.26460185" y="70.35446405900001" text-anchor="start" dominant-baseline="alphabetic" xml:space="preserve">User</text></g><g><path fill="white" stroke="black" paint-order="fill stroke markers" d=" M 261.10513224016665 34.83167965200001 A 20.5258112235 20.5258112235 0 1 1 261.10512197726194 34.81115384419747 M 207.40629277666667 13.130990345000013 L 207.40629277666667 56.53236895900001 M 206.23141469316667 34.83167965200001 L 220.05350979316668 34.83167965200001" stroke-miterlimit="10" stroke-width="2.3497561670000002" stroke-dasharray=""/></g><g><g/><text fill="black" stroke="none" font-family="sans-serif" font-size="9pt" font-style="normal" font-weight="normal" text-decoration="normal" x="217.32061721666668" y="70.35446405900001" text-anchor="start" dominant-baseline="alphabetic" xml:space="preserve">Log in</text></g><g><path fill="white" stroke="black" paint-order="fill stroke markers" d=" M 445.85450698183337 34.83167965200001 A 20.5258112235 20.5258112235 0 1 1 445.8544967189286 34.81115384419747 M 392.1556675183334 13.130990345000013 L 392.1556675183334 56.53236895900001 M 390.9807894348334 34.83167965200001 L 404.80288453483337 34.83167965200001" stroke-miterlimit="10" stroke-width="2.3497561670000002" stroke-dasharray=""/></g><g><g/><text fill="black" stroke="none" font-family="sans-serif" font-size="9pt" font-style="normal" font-weight="normal" text-decoration="normal" x="386.4020232083334" y="70.35446405900001" text-anchor="start" dominant-baseline="alphabetic" xml:space="preserve">Registration</text></g><g><path fill="white" stroke="black" paint-order="fill stroke markers" d=" M 560.305123479 47.40978619300001 L 560.305123479 18.38338648300001 L 600.6656411710001 18.38338648300001 L 600.6656411710001 47.40978619300001" stroke-miterlimit="10" stroke-width="2.3497561670000002" stroke-dasharray=""/><path fill="white" stroke="black" paint-order="fill stroke markers" d=" M 600.6656411710001 17.37437354070001 L 600.6646321664662 17.46559784793715 L 600.6616052537642 17.556813032819587 L 600.6565607355826 17.648009973904845 L 600.6494991163694 17.739179551574814 L 600.6404211022804 17.830312648947697 L 600.6293276011095 17.921400152789705 L 600.6162197221975 18.012432954426355 L 600.6010987763214 18.10340195065335 L 600.5839662755632 18.194298044646867 L 600.5648239331588 18.28511214687326 L 600.5436736633263 18.375835175997985 L 600.5205175810752 18.466458059793723 L 600.4953580019944 18.556971736047625 L 600.4681974420208 18.647367153467485 L 600.4390386171879 18.737635272586893 L 600.4078844433536 18.827767066669157 L 600.3747380359096 18.917753522609985 L 600.3396027094689 19.007585641838766 L 600.3024819775349 19.09725444121844 L 600.2633795521497 19.18675095394379 L 600.2222993435236 19.276066230438126 L 600.1792454596429 19.365191339248224 L 600.1342222058602 19.454117367937478 L 600.0872340844635 19.542835423977124 L 600.0382857942255 19.63133663563549 L 599.9873822299348 19.719612152865153 L 599.9345284819052 19.80765314818796 L 599.8797298354674 19.895450817577746 L 599.8229917704405 19.982996381340737 L 599.7643199605836 20.070281084993503 L 599.7037202730289 20.15729620013843 L 599.6411987676947 20.2440330253365 L 599.5767616966793 20.330482886977485 L 599.5104155036362 20.41663714014726 L 599.4421668231294 20.502487169492298 L 599.37202247997 20.58802439008121 L 599.2999894885339 20.67324024826322 L 599.2260750520603 20.75812622252352 L 599.1502865619311 20.842673824335417 L 599.0726315969323 20.926874599009196 L 598.9931179224957 21.01072012653755 L 598.9117534899223 21.0942020224376 L 598.8285464355877 21.17731193858932 L 598.7435050801279 21.26004156407036 L 598.6566379276077 21.342382625987106 L 598.56795366467 21.424326890301987 L 598.4774611596669 21.505866162656858 L 598.3851694617738 21.58699228919243 L 598.2910878000835 21.667697157363662 L 598.1952255826836 21.74797269675098 L 598.0975923957161 21.82781087986735 L 597.9981980024183 21.90720372296099 L 597.8970523421469 21.986143286813746 L 597.7941655293833 22.064621677535023 L 597.6895478527233 22.14263104735114 L 597.5832097738472 22.220163595390126 L 597.4751619264745 22.29721156846179 L 597.3654151152996 22.37376726183303 L 597.2539803149124 22.449823019998306 L 597.1408686686999 22.525371237445174 L 597.0260914877326 22.600404359414856 L 596.909660249633 22.674914882657674 L 596.7915865974277 22.748895356183404 L 596.6718823383836 22.822338382006333 L 596.5505594428269 22.89523661588509 L 596.427630042946 22.967582768057035 L 596.3031064315785 23.03936960396723 L 596.1770010609818 23.11058994499192 L 596.0493265415877 23.181236669156338 L 595.9200956407418 23.25130271184695 L 595.7893212814266 23.320781066517874 L 595.657016540969 23.38966478539154 L 595.5231946497329 23.45794698015346 L 595.3878689897957 23.52562082264106 L 595.2510530936107 23.59267954552649 L 595.1127606426536 23.659116442993344 L 594.973005466054 23.724924871407236 L 594.8318015392134 23.790098249980165 L 594.6891629824067 23.854630061428587 L 594.5451040593707 23.91851385262513 L 594.3996391758777 23.98174323524391 L 594.2527828782947 24.044311886399363 L 594.1045498521293 24.106213549278507 L 593.9549549205602 24.167442033766644 L 593.8040130429564 24.227991217066347 L 593.6517393133795 24.287855044309737 L 593.4981489590757 24.347027529163984 L 593.3432573389524 24.40550275442991 L 593.1870799420427 24.46327487263372 L 593.0296323859559 24.52033810661173 L 592.8709304153165 24.576686750088104 L 592.7109899001894 24.632315168245448 L 592.5498268344927 24.687217798288298 L 592.3874573343987 24.741389149999407 L 592.2238976367222 24.794823806288743 L 592.0591640972965 24.84751642373521 L 591.8932731893384 24.899461733120972 L 591.7262415018005 24.95065453995838 L 591.5580857377121 25.001089725009408 L 591.3888227125098 25.05076224479758 L 591.2184693523548 25.09966713211231 L 591.0470426924413 25.14779949650562 L 590.8745598752924 25.195154524781188 L 590.7010381490462 25.24172748147564 L 590.5264948657306 25.287513709332124 L 590.3509474795284 25.332508629766004 L 590.174413545032 25.376707743322733 L 589.9969107154878 25.42010663012779 L 589.8184567410309 25.46270095032866 L 589.6390694669099 25.50448644452882 L 589.4587668317026 25.545458934213666 L 589.2775668655225 25.585614322168375 L 589.0954876882153 25.62494859288762 L 588.9125475075467 25.6634578129771 L 588.7287646173825 25.701138131546898 L 588.5441573958584 25.73798578059656 L 588.358744303543 25.773997075391883 L 588.1725438815907 25.8091684148334 L 587.9855747498889 25.843496281816478 L 587.7978556051946 25.876977243583024 L 587.609405219266 25.90960795206476 L 587.4202424369847 25.94138514421803 L 587.2303861744712 25.972305642350104 L 587.0398554171936 26.00236635443693 L 586.8486692180687 26.031564274432355 L 586.6568466955574 26.059896482568703 L 586.4644070317518 26.08736014564878 L 586.271369470458 26.11395251732916 L 586.0777533152714 26.139670938394836 L 585.883577927646 26.16451283702513 L 585.6888627249588 26.188475729050886 L 585.4936271785679 26.211557218202863 L 585.297890811865 26.233754996351387 L 585.1016731983241 26.25506684373714 L 584.9049939595425 26.275490629193143 L 584.7078727632805 26.295024310357867 L 584.5103293214935 26.31366593387948 L 584.3123833883609 26.331413635611156 L 584.1140547583112 26.34826564079752 L 583.915363264042 26.36422026425209 L 583.7163287745371 26.37927591052582 L 583.5169711930798 26.39343107406663 L 583.317310455262 26.406684339369956 L 583.1173665269911 26.41903438112032 L 582.9171594024933 26.43047996432383 L 582.7167091023142 26.44101994443171 L 582.5160356713169 26.450653267454726 L 582.3151591766771 26.459378970068613 L 582.1140997058769 26.46719617971037 L 581.912877364696 26.474104114665558 L 581.7115122752006 26.48010208414643 L 581.5100245737319 26.485189488361044 L 581.3084344088924 26.48936581857321 L 581.1067619395302 26.49263065715339 L 580.9050273327244 26.494983677620446 L 580.7032507617675 26.496424644674292 L 580.5014524041486 26.49695341421943 L 580.2996524395351 26.496569933379337 L 580.0978710477553 26.49527424050178 L 579.8961284067805 26.493066465154968 L 579.6944446907063 26.489946828114597 L 579.4928400677364 26.485915641341773 L 579.2913346981653 26.480973307951807 L 579.0899487323617 26.47512032217393 L 578.8887023087545 26.46835726930183 L 578.6876155518185 26.460684825635163 L 578.4867085700615 26.45210375841191 L 578.2860014540146 26.442614925731633 L 578.0855142742219 26.43221927646969 L 577.8852670792344 26.420917850182356 L 577.6852798936047 26.408711777002836 L 577.4855727158847 26.39560227752827 L 577.2861655166258 26.38159066269769 L 577.0870782363818 26.3666783336609 L 576.8883307837148 26.350866781638377 L 576.6899430332043 26.334157587772147 L 576.49193482346 26.316552422967668 L 576.2943259551382 26.298053047726754 L 576.0971361889608 26.27866131197151 L 575.9003852437402 26.258379154859362 L 575.7040927944067 26.237208604589107 L 575.508278470042 26.215151778198134 L 575.3129618519152 26.192210881350697 L 575.1181624715255 26.168388208117374 L 574.9238998086483 26.14368614074563 L 574.7301932893882 26.11810714942162 L 574.5370622842358 26.091653792023152 L 574.3445261061305 26.06432871386393 L 574.1526040085297 26.036134647428998 L 573.9613151834833 26.007074412101503 L 573.7706787597143 25.97715091388076 L 573.5807138007062 25.946367145091656 L 573.3914393027968 25.914726184085417 L 573.202874193278 25.88223119493178 L 573.0150373285036 25.848885427102573 L 572.8279474920035 25.8146922151468 L 572.6416233926057 25.779654978357154 L 572.4560836625645 25.74377722042812 L 572.2713468556987 25.707062529105595 L 572.0874314455347 25.669514575828117 L 571.9043558234603 25.631137115359714 L 571.7221382968853 25.591933985414464 L 571.5407970874105 25.551909106272685 L 571.3603503290055 25.51106648038894 L 571.1808160661961 25.469410191991777 L 571.0022122522587 25.426944406675332 L 570.8245567474261 25.38367337098274 L 570.6478673171005 25.339601411981512 L 570.4721616300777 25.294732936830826 L 570.2974572567801 25.249072432340803 L 570.1237716674995 25.202624464523847 L 569.95112223065 25.155393678138026 L 569.7795262110313 25.107384796222625 L 569.6090007681026 25.058602619625823 L 569.439562954266 25.009052026524635 L 569.2712297131615 24.958737971937072 L 569.1040178779732 24.907665487226673 L 568.9379441697452 24.855839679599338 L 568.7730251957097 24.803265731592653 L 568.609277447627 24.749948900557595 L 568.4467173001353 24.695894518132846 L 568.2853610091139 24.641107989711603 L 568.1252247100575 24.585594793901052 L 567.9663244164624 24.529360481974507 L 567.8086760182257 24.472410677316308 L 567.6522952800558 24.414751074859456 L 567.4971978398961 24.35638744051615 L 567.3433992073616 24.29732561060119 L 567.190914762187 24.237571491248346 L 567.0397597526903 24.17713105781976 L 566.889949294246 24.116010354308408 L 566.7414983677753 24.05421549273371 L 566.5944218182472 23.991752652530323 L 566.4487343531939 23.928628079930213 L 566.3044505412407 23.864848087338046 L 566.1615848106485 23.800419052699922 L 566.0201514478713 23.735347418865622 L 565.8801645961273 23.669639692944294 L 565.7416382539853 23.603302445653785 L 565.6045862739641 23.536342310663535 L 565.4690223611473 23.468765983931245 L 565.3349600718133 23.400580223033273 L 565.2024128120794 23.331791846488894 L 565.0713938365609 23.262407733078433 L 564.9419162470463 23.192434821155416 L 564.8139929911866 23.12188010795272 L 564.687636861201 23.050750648882868 L 564.562860492597 22.9790535568325 L 564.4396763629074 22.90679600145107 L 564.3180967904427 22.8339852084339 L 564.1981339330588 22.76062845879962 L 564.0797997869414 22.686733088162057 L 563.9631061854066 22.612306485996704 L 563.848064797717 22.537356094901746 L 563.734687127916 22.461889409853843 L 563.6229845136758 22.385913977458607 L 563.5129681251647 22.309437395195964 L 563.40464896393 22.232467310660407 L 563.2980378617975 22.155011420796257 L 563.1931454797885 22.077077471127946 L 563.089982307054 21.9986732549855 L 562.9885586598251 21.919806612725196 L 562.8888846803821 21.84048543094554 L 562.7909703360399 21.760717641698605 L 562.6948254181513 21.680511221696847 L 562.600459541128 21.599874191515422 L 562.507882141479 21.518814614790156 L 562.4171024768671 21.43734059741117 L 562.3281296251831 21.355460286712304 L 562.2409724836382 21.2731818706564 L 562.1556397678738 21.1905135770165 L 562.0721400110904 21.107463672553074 L 561.990481563194 21.024040462187358 L 561.9106725899615 20.940252288170875 L 561.8327210722235 20.856107529251197 L 561.756634805067 20.771614599834102 L 561.6824213970554 20.686781949142116 L 561.6100882694674 20.60161806036962 L 561.5396426555556 20.516131449834518 L 561.4710915998227 20.430330666126622 L 561.4044419573171 20.34422428925281 L 561.3397003929475 20.257820929779008 L 561.2768733808165 20.171129227969164 L 561.2159672035727 20.084157852921216 L 561.1569879517834 19.996915501700187 L 561.0999415233246 19.909410898468508 L 561.0448336227913 19.821652793613573 L 560.991669760928 19.73364996287274 L 560.9404552540761 19.645411206455748 L 560.8911952236442 19.556945348164703 L 560.8438945955938 19.46826123451172 L 560.7985580999487 19.37936773383425 L 560.7551902703203 19.29027373540829 L 560.7137954434556 19.200988148559443 L 560.6743777588028 19.11151990177198 L 560.6369411580977 19.021877941796028 L 560.6014893849688 18.932071232752882 L 560.568025984564 18.84210875523861 L 560.5365543031955 18.75199950542599 L 560.5070774880053 18.661752494164915 L 560.4795984866503 18.571376746081306 L 560.4541200470077 18.48088129867466 L 560.4306447169001 18.3902752014143 L 560.4091748438411 18.299567514834454 L 560.3897125748002 18.208767309628186 L 560.372259855988 18.11788366574035 L 560.3568184326618 18.0269256714596 L 560.343389848951 17.935902422509567 L 560.3319754477029 17.84482302113929 L 560.3225763703482 17.753696575213013 L 560.3151935567865 17.66253219729938 L 560.3098277452933 17.571339003760222 L 560.3064794724452 17.480126113838896 L 560.3051490730666 17.38890264874838 L 560.3058366801964 17.297677730759172 L 560.3085422250745 17.206460482287042 L 560.3132654371485 17.115260024980824 L 560.3200058441013 17.024085478810253 L 560.3287627718977 16.932945961153965 L 560.3395353448524 16.841850585887777 L 560.3523224857169 16.7508084624733 L 560.3671229157878 16.659828695047015 L 560.3839351550346 16.56892038150984 L 560.402757522247 16.478092612617374 L 560.4235881352045 16.38735447107082 L 560.4464249108627 16.296715030608716 L 560.4712655655633 16.206183355099576 L 560.4981076152613 16.115768497635504 L 560.5269483757745 16.025479499626908 L 560.5577849630505 15.935325389898342 L 560.5906142934565 15.845315183785655 L 560.6254330840867 15.755457882234447 L 560.6622378530911 15.665762470899995 L 560.7010249200235 15.576237919248685 L 560.7417904062095 15.486893179661077 L 560.7845302351343 15.39773718653668 L 560.8292401328509 15.308778855400508 L 560.8759156284066 15.22002708201154 L 560.9245520542908 15.131490741473161 L 560.9751445469014 15.043178687345641 L 561.0276880470313 14.955099750760802 L 561.0821773003745 14.8672627395389 L 561.1386068580507 14.779676437307863 L 561.1969710771514 14.692349602624924 L 561.2572641213033 14.60529096810078 L 561.319479961252 14.518509239526336 L 561.3836123754658 14.43201309500213 L 561.4496549507563 14.345811184070534 L 561.5176010829211 14.259912126850807 L 561.5874439774038 14.17432451317709 L 561.6591766499731 14.089056901739427 L 561.7327919274213 14.004117819227906 L 561.8082824482823 13.919515759479994 L 561.8856406635667 13.835259182631166 L 561.9648588375175 13.751356514268892 L 562.0459290483833 13.667816144590091 L 562.1288431892107 13.584646427562113 L 562.2135929686546 13.501855680087353 L 562.3001699118075 13.419452181171566 L 562.3885653610477 13.337444171095978 L 562.4787704769035 13.25583985059325 L 562.5707762389386 13.174647380027436 L 562.6645734466537 13.093874878577928 L 562.7601527204058 13.01353042342756 L 562.8575045023475 12.933622048954899 L 562.9566190573817 12.854157745930795 L 563.0574864741353 12.775145460719337 L 563.1600966659508 12.696593094483198 L 563.2644393718946 12.618508502393542 L 563.3705041577829 12.540899492844511 L 563.4782804172255 12.463773826672384 L 563.5877573726864 12.387139216379506 L 563.6989240765612 12.311003325363046 L 563.8117694122723 12.235373767148658 L 563.9262820953799 12.16025810462914 L 564.0424506747113 12.085663849308148 L 564.1602635335054 12.01159846054905 L 564.2797088905743 11.938069344829005 L 564.400774801482 11.865083854998307 L 564.5234491597383 11.79264928954512 L 564.6477196980095 11.720772891865627 L 564.7735739893454 11.6494618495397 L 564.9009994484219 11.578723293612143 L 565.0299833327989 11.508564297879605 L 565.1605127441958 11.43899187818319 L 565.29257462978 11.370012991706892 L 565.4261557834732 11.301634536281876 L 565.5612428472712 11.233863349696701 L 565.6978223125801 11.166706209013554 L 565.8358805215674 11.100169829890536 L 565.9754036685273 11.034260865910113 L 566.116377801261 10.968985907913758 L 566.2587888224731 10.904351483342879 L 566.4026224911801 10.840364055586068 L 566.5478644241347 10.777030023332777 L 566.6945000972648 10.714355719933458 L 566.8425148471255 10.652347412766217 L 566.9918938723648 10.591011302610099 L 567.142622235205 10.530353523025006 L 567.294684862935 10.470380139738353 L 567.4480665494192 10.411097150038483 L 567.6027519566164 10.35251048217497 L 567.7587256161152 10.294625994765777 L 567.9159719306791 10.23744947621141 L 568.0744751758082 10.180986644116071 L 568.2342195013097 10.125243144715924 L 568.3951889328843 10.070224552314452 L 568.557367373723 10.015936368725047 L 568.7207386061168 9.96238402272083 L 568.8852862930787 9.909572869491775 L 569.0509939799771 9.857508190109193 L 569.2178450961813 9.806195190997638 L 569.3858229567189 9.755639003414256 L 569.5549107639437 9.70584468293568 L 569.7250916092158 9.65681720895246 L 569.8963484745927 9.60856148417114 L 570.0686642345305 9.561082334123986 L 570.2420216575968 9.514384506686433 L 570.4164034081936 9.468472671602314 L 570.5917920482914 9.423351420016875 L 570.7681700391722 9.379025264017674 L 570.9455197431839 9.335498636183374 L 571.1238234255039 9.292775889140485 L 571.3030632559128 9.250861295128109 L 571.4832213105765 9.20975904557072 L 571.6642795738398 9.169473250659022 L 571.8462199400275 9.130007938938933 L 572.0290242152544 9.091367056908739 L 572.2126741192452 9.05355446862444 L 572.3971512871627 9.016573955313358 L 572.582437271444 8.980429214996002 L 572.7685135436446 8.94512386211629 L 572.9553614962929 8.910661427180083 L 573.142962444749 8.877045356402157 L 573.3312976290744 8.844279011361579 L 573.5203482159077 8.812365668665546 L 573.7100953003477 8.781308519621733 L 573.9005199078442 8.751110669919164 L 574.0916029960949 8.721775139317646 L 574.2833254569505 8.69330486134579 L 574.4756681183245 8.665702683007671 L 574.6686117461111 8.638971364498119 L 574.8621370461083 8.61311357892671 L 575.0562246659473 8.588131912050452 L 575.250855197028 8.564028862015215 L 575.4460091764594 8.540806839105917 L 575.6416670890062 8.5184681655055 L 575.8378093690401 8.497015075062702 L 576.0344164024967 8.476449713068696 L 576.2314685288364 8.45677413604254 L 576.4289460430108 8.437990311525544 L 576.626829197433 8.420100117884502 L 576.8250982039526 8.403105344123873 L 577.023733235834 8.387007689706868 L 577.2227144297397 8.371808764385518 L 577.422021887716 8.357510088039685 L 577.6216356791832 8.344113090525092 L 577.8215358429286 8.331619111530324 L 578.0217023891023 8.320029400442868 L 578.2221153012166 8.309345116224177 L 578.4227545381472 8.299567327293769 L 578.6236000361375 8.290697011422388 L 578.8246317108054 8.282735055634229 L 579.0258294591507 8.275682256118236 L 579.2271731615663 8.269539318148484 L 579.4286426838496 8.26430685601365 L 579.6302178792166 8.25998539295559 L 579.8318785903155 8.256575361117005 L 580.0336046512432 8.254077101498238 L 580.2353758895619 8.25249086392317 L 580.4371721283156 8.251816807014235 L 580.638973188049 8.252054998176563 L 580.840758888824 8.253205413591239 L 581.0425090522388 8.255267938217676 L 581.2442035034451 8.258242365805131 L 581.445822073166 8.262128398913326 L 581.6473445997124 8.266925648942188 L 581.8487509309996 8.27263363617071 L 582.0500209265623 8.279251789804928 L 582.2511344595688 8.286779448034991 L 582.4520714188333 8.295215858101352 L 582.6528117108272 8.304560176370032 L 582.8533352616888 8.314811468416993 L 583.05362201923 8.325968709121573 L 583.2536519549419 8.338030782768998 L 583.4534050659978 8.350996483161955 L 583.6528613772529 8.36486451374121 L 583.8520009432423 8.379633487715264 L 584.0508038501754 8.395301928199023 L 584.2492502179272 8.411868268361497 L 584.4473202020263 8.429330851582476 L 584.6449939956392 8.447687931618189 L 584.8422518315514 8.466937672775929 L 585.0390739841436 8.487078150097624 L 585.2354407713647 8.508107349552324 L 585.4313325566994 8.530023168237609 L 585.6267297511326 8.552823414589874 L 585.8216128151078 8.57650580860348 L 586.0159622604807 8.601067982058765 L 586.2097586524688 8.62650747875885 L 586.4029826115946 8.652821754775266 L 586.5956148156229 8.680008178702337 L 586.787636001494 8.70806403192033 L 586.9790269672494 8.736986508867298 L 587.1697685739518 8.766772717319652 L 587.3598417475997 8.797419678681367 L 587.5492274810341 8.828924328281845 L 587.7379068358393 8.861283515682382 L 587.9258609442372 8.894494004991202 L 588.1130710109736 8.92855247518705 L 588.2995183151977 8.96345552045129 L 588.4851842123346 8.99919965050848 L 588.6700501359493 9.035781290975399 L 588.8540975996034 9.073196783718487 L 589.0373081987038 9.11144238721965 L 589.2196636123435 9.150514276950409 L 589.4011456051331 9.190408545754348 L 589.5817360290245 9.231121204237832 L 589.7614168251256 9.272648181168943 L 589.9401700255067 9.31498532388459 L 590.1179777549969 9.358128398705787 L 590.294822232971 9.402073091361 L 590.470685775129 9.446815007417584 L 590.6455507952629 9.492349672721222 L 590.8193998070167 9.538672533843325 L 590.9922154256338 9.585778958536384 L 591.1639803696966 9.633664236197188 L 591.3346774628537 9.682323578337868 L 591.504289635538 9.731752119064769 L 591.6727999266737 9.781944915565 L 591.8401914853721 9.832896948600744 L 592.0064475726168 9.884603123011154 L 592.1715515629375 9.937058268221879 L 592.3354869460728 9.990257138762107 L 592.4982373286211 10.044194414789121 L 592.6597864356798 10.098864702620265 L 592.8201181124726 10.154262535272313 L 592.9792163259657 10.210382373008162 L 593.1370651664702 10.267218603890809 L 593.2936488492335 10.324765544344528 L 593.4489517160179 10.383017439723227 L 593.6029582366662 10.441968464885916 L 593.7556530106546 10.5016127247792 L 593.9070207686328 10.561944255026793 L 594.0570463739515 10.622957022525949 L 594.2057148241748 10.68464492605076 L 594.353011252582 10.747001796862282 L 594.4989209296525 10.810021399325397 L 594.6434292645406 10.87369743153237 L 594.7865218065331 10.938023525933051 L 594.9281842464949 11.002993249971603 L 595.0684024183003 11.06860010672976 L 595.2071623002487 11.13483753557652 L 595.3444500164678 11.201698912824195 L 595.4802518383002 11.269177552390781 L 595.6145541856771 11.33726670646855 L 595.7473436284754 11.40595956619884 L 595.8786068878617 11.475249262352916 L 596.0083308376193 11.545128866018906 L 596.1365025054613 11.615591389294678 L 596.2631090743279 11.68662978598662 L 596.3881378836677 11.758236952314263 L 596.5115764307037 11.830405727620647 L 596.6334123716845 11.90312889508838 L 596.7536335231171 11.976399182461318 L 596.8722278629867 12.050209262771784 L 596.9891835319582 12.124551755073254 L 597.1044888345622 12.199419225178449 L 597.2181322403644 12.27480418640275 L 597.330102385119 12.350699100312852 L 597.4403880719047 12.427096377480613 L 597.5489782722449 12.503988378241978 L 597.6558621272101 12.581367413460947 L 597.7610289485036 12.659225745298484 L 597.8644682195311 12.737555587986282 L 597.9661695964518 12.816349108605351 L 598.0661229092125 12.895598427869288 L 598.1643181625655 12.975295620912206 L 598.2607455370669 13.055432718081219 L 598.35539539006 13.136001705733388 L 598.4482582566382 13.216994527037087 L 598.5393248505923 13.298403082777684 L 598.6285860653386 13.380219232167441 L 598.7160329748303 13.4624347936596 L 598.8016568344491 13.545041545766527 L 598.8854490818806 13.628031227881847 L 598.9674013379695 13.711395541106507 L 599.0475054075589 13.795126149078655 L 599.1257532803083 13.87921467880727 L 599.202137131496 13.963652721509447 L 599.2766493228002 14.04843183345129 L 599.3492824030639 14.133543536792248 L 599.4200291090395 14.218979320432913 L 599.4888823661158 14.304730640866119 L 599.555835289024 14.39078892303128 L 599.6208811825279 14.477145561171898 L 599.6840135420922 14.563791919696119 L 599.7452260545336 14.650719334040296 L 599.8045125986519 14.737919111535435 L 599.861867245842 14.825382532276453 L 599.917284260687 14.91310084999416 L 599.9707581015317 15.001065292929885 L 600.0222834210365 15.089267064712637 L 600.0718550667124 15.17769734523874 L 600.1194680814361 15.266347291553828 L 600.1651177039458 15.35520803873715 L 600.2087993693174 15.444270700788037 L 600.2505087094207 15.5335263715145 L 600.2902415533564 15.622966125423847 L 600.3279939278733 15.712581018615221 L 600.3637620577654 15.80236208967398 L 600.3975423662494 15.89230036056784 L 600.4293314753227 15.982386837544652 L 600.4591262061009 16.072612512031796 L 600.4869235791357 16.16296836153701 L 600.512720814713 16.25344535055064 L 600.5365153331308 16.34403443144918 L 600.5583047549568 16.434726545400032 L 600.5780869012673 16.525512623267378 L 600.5958597938641 16.616383586519085 L 600.6116216554726 16.707330348134555 L 600.6253709099199 16.798343813513412 L 600.637106182292 16.889414881384965 L 600.6468262990713 16.980534444718323 L 600.6545302882545 17.071693391633076 L 600.6602173794489 17.162882606310504 L 600.6638870039501 17.25409296990513 L 600.6655387947987 17.345315361456603 M 600.6656411710001 46.40077325070001 L 600.6646321664662 46.491997557937154 L 600.6616052537642 46.58321274281959 L 600.6565607355826 46.67440968390485 L 600.6494991163694 46.765579261574814 L 600.6404211022804 46.856712358947696 L 600.6293276011095 46.94779986278971 L 600.6162197221975 47.03883266442636 L 600.6010987763214 47.12980166065335 L 600.5839662755632 47.22069775464687 L 600.5648239331588 47.31151185687327 L 600.5436736633263 47.402234885997984 L 600.5205175810752 47.49285776979373 L 600.4953580019944 47.58337144604763 L 600.4681974420208 47.673766863467485 L 600.4390386171879 47.76403498258689 L 600.4078844433536 47.85416677666916 L 600.3747380359096 47.944153232609985 L 600.3396027094689 48.033985351838766 L 600.3024819775349 48.12365415121844 L 600.2633795521497 48.21315066394379 L 600.2222993435236 48.302465940438125 L 600.1792454596429 48.39159104924823 L 600.1342222058602 48.480517077937485 L 600.0872340844635 48.56923513397713 L 600.0382857942255 48.65773634563549 L 599.9873822299348 48.74601186286516 L 599.9345284819052 48.83405285818797 L 599.8797298354674 48.92185052757775 L 599.8229917704405 49.00939609134074 L 599.7643199605836 49.09668079499351 L 599.7037202730289 49.18369591013843 L 599.6411987676947 49.270432735336506 L 599.5767616966793 49.35688259697749 L 599.5104155036362 49.44303685014726 L 599.4421668231294 49.528886879492305 L 599.37202247997 49.614424100081216 L 599.2999894885339 49.69963995826322 L 599.2260750520603 49.78452593252352 L 599.1502865619311 49.86907353433542 L 599.0726315969323 49.953274309009196 L 598.9931179224957 50.03711983653755 L 598.9117534899223 50.1206017324376 L 598.8285464355877 50.203711648589326 L 598.7435050801279 50.28644127407036 L 598.6566379276077 50.368782335987106 L 598.56795366467 50.45072660030199 L 598.4774611596669 50.532265872656865 L 598.3851694617738 50.61339199919244 L 598.2910878000835 50.69409686736366 L 598.1952255826836 50.774372406750985 L 598.0975923957161 50.85421058986736 L 597.9981980024183 50.93360343296099 L 597.8970523421469 51.01254299681375 L 597.7941655293833 51.09102138753502 L 597.6895478527233 51.169030757351145 L 597.5832097738472 51.24656330539013 L 597.4751619264745 51.3236112784618 L 597.3654151152996 51.40016697183303 L 597.2539803149124 51.476222729998305 L 597.1408686686999 51.55177094744518 L 597.0260914877326 51.62680406941486 L 596.909660249633 51.70131459265768 L 596.7915865974277 51.7752950661834 L 596.6718823383836 51.848738092006336 L 596.5505594428269 51.921636325885096 L 596.427630042946 51.993982478057035 L 596.3031064315785 52.06576931396724 L 596.1770010609818 52.13698965499192 L 596.0493265415877 52.20763637915634 L 595.9200956407418 52.27770242184695 L 595.7893212814266 52.347180776517874 L 595.657016540969 52.41606449539154 L 595.5231946497329 52.48434669015346 L 595.3878689897957 52.552020532641066 L 595.2510530936107 52.61907925552649 L 595.1127606426536 52.685516152993344 L 594.973005466054 52.75132458140724 L 594.8318015392134 52.81649795998017 L 594.6891629824067 52.88102977142859 L 594.5451040593707 52.94491356262513 L 594.3996391758777 53.00814294524392 L 594.2527828782947 53.07071159639937 L 594.1045498521293 53.132613259278514 L 593.9549549205602 53.19384174376665 L 593.8040130429564 53.254390927066346 L 593.6517393133795 53.314254754309744 L 593.4981489590757 53.37342723916399 L 593.3432573389524 53.43190246442992 L 593.1870799420427 53.489674582633725 L 593.0296323859559 53.54673781661174 L 592.8709304153165 53.60308646008811 L 592.7109899001894 53.65871487824545 L 592.5498268344927 53.7136175082883 L 592.3874573343987 53.76778885999941 L 592.2238976367222 53.82122351628875 L 592.0591640972965 53.873916133735214 L 591.8932731893384 53.92586144312098 L 591.7262415018005 53.977054249958385 L 591.5580857377121 54.02748943500941 L 591.3888227125098 54.07716195479758 L 591.2184693523548 54.12606684211231 L 591.0470426924413 54.17419920650563 L 590.8745598752924 54.22155423478119 L 590.7010381490462 54.26812719147564 L 590.5264948657306 54.313913419332124 L 590.3509474795284 54.358908339766 L 590.174413545032 54.40310745332273 L 589.9969107154878 54.4465063401278 L 589.8184567410309 54.48910066032867 L 589.6390694669099 54.53088615452882 L 589.4587668317026 54.57185864421367 L 589.2775668655225 54.61201403216838 L 589.0954876882153 54.65134830288763 L 588.9125475075467 54.6898575229771 L 588.7287646173825 54.7275378415469 L 588.5441573958584 54.76438549059656 L 588.358744303543 54.80039678539188 L 588.1725438815907 54.8355681248334 L 587.9855747498889 54.869895991816485 L 587.7978556051946 54.90337695358303 L 587.609405219266 54.93600766206477 L 587.4202424369847 54.96778485421804 L 587.2303861744712 54.99870535235011 L 587.0398554171936 55.02876606443694 L 586.8486692180687 55.057963984432355 L 586.6568466955574 55.08629619256871 L 586.4644070317518 55.11375985564878 L 586.271369470458 55.14035222732916 L 586.0777533152714 55.166070648394836 L 585.883577927646 55.190912547025135 L 585.6888627249588 55.214875439050886 L 585.4936271785679 55.23795692820286 L 585.297890811865 55.26015470635139 L 585.1016731983241 55.28146655373715 L 584.9049939595425 55.30189033919315 L 584.7078727632805 55.321424020357874 L 584.5103293214935 55.340065643879484 L 584.3123833883609 55.35781334561116 L 584.1140547583112 55.37466535079753 L 583.915363264042 55.3906199742521 L 583.7163287745371 55.40567562052583 L 583.5169711930798 55.41983078406663 L 583.317310455262 55.43308404936996 L 583.1173665269911 55.44543409112032 L 582.9171594024933 55.45687967432383 L 582.7167091023142 55.46741965443171 L 582.5160356713169 55.47705297745473 L 582.3151591766771 55.48577868006861 L 582.1140997058769 55.49359588971038 L 581.912877364696 55.500503824665564 L 581.7115122752006 55.50650179414644 L 581.5100245737319 55.51158919836105 L 581.3084344088924 55.51576552857321 L 581.1067619395302 55.51903036715339 L 580.9050273327244 55.521383387620446 L 580.7032507617675 55.5228243546743 L 580.5014524041486 55.52335312421943 L 580.2996524395351 55.52296964337934 L 580.0978710477553 55.521673950501786 L 579.8961284067805 55.519466175154975 L 579.6944446907063 55.516346538114604 L 579.4928400677364 55.512315351341776 L 579.2913346981653 55.507373017951814 L 579.0899487323617 55.50152003217393 L 578.8887023087545 55.49475697930183 L 578.6876155518185 55.48708453563517 L 578.4867085700615 55.478503468411915 L 578.2860014540146 55.46901463573163 L 578.0855142742219 55.458618986469695 L 577.8852670792344 55.447317560182356 L 577.6852798936047 55.435111487002835 L 577.4855727158847 55.422001987528276 L 577.2861655166258 55.4079903726977 L 577.0870782363818 55.39307804366091 L 576.8883307837148 55.37726649163838 L 576.6899430332043 55.36055729777215 L 576.49193482346 55.34295213296767 L 576.2943259551382 55.32445275772676 L 576.0971361889608 55.30506102197152 L 575.9003852437402 55.28477886485936 L 575.7040927944067 55.263608314589106 L 575.508278470042 55.241551488198134 L 575.3129618519152 55.2186105913507 L 575.1181624715255 55.19478791811738 L 574.9238998086483 55.170085850745636 L 574.7301932893882 55.14450685942162 L 574.5370622842358 55.11805350202316 L 574.3445261061305 55.090728423863936 L 574.1526040085297 55.062534357429 L 573.9613151834833 55.03347412210151 L 573.7706787597143 55.00355062388076 L 573.5807138007062 54.97276685509166 L 573.3914393027968 54.941125894085424 L 573.202874193278 54.90863090493178 L 573.0150373285036 54.87528513710258 L 572.8279474920035 54.8410919251468 L 572.6416233926057 54.80605468835716 L 572.4560836625645 54.77017693042812 L 572.2713468556987 54.7334622391056 L 572.0874314455347 54.69591428582812 L 571.9043558234603 54.65753682535972 L 571.7221382968853 54.618333695414464 L 571.5407970874105 54.57830881627269 L 571.3603503290055 54.53746619038894 L 571.1808160661961 54.495809901991784 L 571.0022122522587 54.45334411667533 L 570.8245567474261 54.41007308098274 L 570.6478673171005 54.36600112198152 L 570.4721616300777 54.32113264683083 L 570.2974572567801 54.27547214234081 L 570.1237716674995 54.22902417452385 L 569.95112223065 54.18179338813803 L 569.7795262110313 54.133784506222625 L 569.6090007681026 54.08500232962582 L 569.439562954266 54.035451736524635 L 569.2712297131615 53.985137681937076 L 569.1040178779732 53.93406519722667 L 568.9379441697452 53.88223938959934 L 568.7730251957097 53.82966544159265 L 568.609277447627 53.7763486105576 L 568.4467173001353 53.72229422813285 L 568.2853610091139 53.66750769971161 L 568.1252247100575 53.61199450390105 L 567.9663244164624 53.555760191974514 L 567.8086760182257 53.49881038731631 L 567.6522952800558 53.44115078485946 L 567.4971978398961 53.38278715051616 L 567.3433992073616 53.32372532060119 L 567.190914762187 53.26397120124835 L 567.0397597526903 53.203530767819764 L 566.889949294246 53.142410064308415 L 566.7414983677753 53.08061520273371 L 566.5944218182472 53.01815236253032 L 566.4487343531939 52.95502778993022 L 566.3044505412407 52.891247797338046 L 566.1615848106485 52.82681876269993 L 566.0201514478713 52.76174712886562 L 565.8801645961273 52.6960394029443 L 565.7416382539853 52.62970215565379 L 565.6045862739641 52.562742020663535 L 565.4690223611473 52.49516569393125 L 565.3349600718133 52.42697993303328 L 565.2024128120794 52.3581915564889 L 565.0713938365609 52.28880744307844 L 564.9419162470463 52.218834531155416 L 564.8139929911866 52.14827981795272 L 564.687636861201 52.077150358882875 L 564.562860492597 52.005453266832504 L 564.4396763629074 51.93319571145107 L 564.3180967904427 51.8603849184339 L 564.1981339330588 51.78702816879962 L 564.0797997869414 51.713132798162064 L 563.9631061854066 51.638706195996704 L 563.848064797717 51.56375580490175 L 563.734687127916 51.488289119853846 L 563.6229845136758 51.41231368745861 L 563.5129681251647 51.335837105195964 L 563.40464896393 51.25886702066041 L 563.2980378617975 51.18141113079626 L 563.1931454797885 51.10347718112795 L 563.089982307054 51.025072964985505 L 562.9885586598251 50.9462063227252 L 562.8888846803821 50.86688514094554 L 562.7909703360399 50.78711735169861 L 562.6948254181513 50.70691093169685 L 562.600459541128 50.626273901515425 L 562.507882141479 50.54521432479016 L 562.4171024768671 50.46374030741117 L 562.3281296251831 50.38185999671231 L 562.2409724836382 50.29958158065641 L 562.1556397678738 50.2169132870165 L 562.0721400110904 50.13386338255307 L 561.990481563194 50.050440172187365 L 561.9106725899615 49.966651998170875 L 561.8327210722235 49.882507239251204 L 561.756634805067 49.7980143098341 L 561.6824213970554 49.71318165914212 L 561.6100882694674 49.628017770369624 L 561.5396426555556 49.54253115983452 L 561.4710915998227 49.45673037612663 L 561.4044419573171 49.370623999252814 L 561.3397003929475 49.28422063977901 L 561.2768733808165 49.19752893796917 L 561.2159672035727 49.110557562921215 L 561.1569879517834 49.023315211700194 L 561.0999415233246 48.93581060846851 L 561.0448336227913 48.84805250361357 L 560.991669760928 48.76004967287274 L 560.9404552540761 48.67181091645575 L 560.8911952236442 48.58334505816471 L 560.8438945955938 48.49466094451172 L 560.7985580999487 48.40576744383425 L 560.7551902703203 48.3166734454083 L 560.7137954434556 48.227387858559446 L 560.6743777588028 48.137919611771984 L 560.6369411580977 48.048277651796035 L 560.6014893849688 47.95847094275289 L 560.568025984564 47.86850846523861 L 560.5365543031955 47.77839921542599 L 560.5070774880053 47.68815220416492 L 560.4795984866503 47.59777645608131 L 560.4541200470077 47.50728100867467 L 560.4306447169001 47.416674911414304 L 560.4091748438411 47.32596722483446 L 560.3897125748002 47.23516701962819 L 560.372259855988 47.14428337574036 L 560.3568184326618 47.05332538145961 L 560.343389848951 46.96230213250957 L 560.3319754477029 46.8712227311393 L 560.3225763703482 46.78009628521301 L 560.3151935567865 46.688931907299384 L 560.3098277452933 46.59773871376023 L 560.3064794724452 46.5065258238389 L 560.3051490730666 46.415302358748384" stroke-miterlimit="10" stroke-width="2.3497561670000002" stroke-dasharray=""/></g><g><g/><text fill="black" stroke="none" font-family="sans-serif" font-size="9pt" font-style="normal" font-weight="normal" text-decoration="normal" x="554.8008120125" y="70.35446405900001" text-anchor="start" dominant-baseline="alphabetic" xml:space="preserve">Database</text></g><g><path fill="white" stroke="black" paint-order="fill stroke markers" d=" M 687.5380541443334 34.83167965200001 A 20.5258112235 20.5258112235 0 1 1 687.5380438814286 34.81115384419747 M 633.8392146808333 13.130990345000013 L 633.8392146808333 56.53236895900001 M 632.6643365973333 34.83167965200001 L 646.4864316973334 34.83167965200001" stroke-miterlimit="10" stroke-width="2.3497561670000002" stroke-dasharray=""/></g><g><g/><text fill="black" stroke="none" font-family="sans-serif" font-size="9pt" font-style="normal" font-weight="normal" text-decoration="normal" x="649.4254141208334" y="70.35446405900001" text-anchor="start" dominant-baseline="alphabetic" xml:space="preserve">App</text></g></g><g><path fill="white" stroke="black" paint-order="fill stroke markers" d=" M 76.02152305 81.41214013900002 L 89.84361815000001 81.41214013900002 L 89.84361815000001 1159.5355579390002 L 76.02152305 1159.5355579390002 L 76.02152305 81.41214013900002" stroke-miterlimit="10" stroke-width="1.1518412583333333" stroke-dasharray=""/><path fill="white" stroke="black" paint-order="fill stroke markers" d=" M 226.75722591666667 81.41214013900002 L 240.57932101666668 81.41214013900002 L 240.57932101666668 813.983180439 L 226.75722591666667 813.983180439 L 226.75722591666667 81.41214013900002" stroke-miterlimit="10" stroke-width="1.1518412583333333" stroke-dasharray=""/><path fill="white" stroke="black" paint-order="fill stroke markers" d=" M 573.574334775 81.41214013900002 L 587.3964298750001 81.41214013900002 L 587.3964298750001 656.411296299 L 573.574334775 656.411296299 L 573.574334775 81.41214013900002" stroke-miterlimit="10" stroke-width="1.1518412583333333" stroke-dasharray=""/><path fill="white" stroke="black" paint-order="fill stroke markers" d=" M 653.1901478208333 197.517738979 L 667.0122429208334 197.517738979 L 667.0122429208334 236.219605259 L 653.1901478208333 236.219605259 L 653.1901478208333 197.517738979" stroke-miterlimit="10" stroke-width="1.1518412583333333" stroke-dasharray=""/><path fill="white" stroke="black" paint-order="fill stroke markers" d=" M 653.1901478208333 312.241128309 L 667.0122429208334 312.241128309 L 667.0122429208334 350.94299458899997 L 653.1901478208333 350.94299458899997 L 653.1901478208333 312.241128309" stroke-miterlimit="10" stroke-width="1.1518412583333333" stroke-dasharray=""/><path fill="white" stroke="black" paint-order="fill stroke markers" d=" M 411.5066006583334 813.983180439 L 425.32869575833337 813.983180439 L 425.32869575833337 1253.5258046190002 L 411.5066006583334 1253.5258046190002 L 411.5066006583334 813.983180439" stroke-miterlimit="10" stroke-width="1.1518412583333333" stroke-dasharray=""/><path fill="white" stroke="black" paint-order="fill stroke markers" d=" M 573.574334775 930.0887792789999 L 587.3964298750001 930.0887792789999 L 587.3964298750001 1159.5355579390002 L 573.574334775 1159.5355579390002 L 573.574334775 930.0887792789999" stroke-miterlimit="10" stroke-width="1.1518412583333333" stroke-dasharray=""/><g><g><rect fill="white" stroke="none" x="106.19976401833335" y="102.14528278900002" width="104.20131603" height="17.96872363"/></g><text fill="black" stroke="none" font-family="sans-serif" font-size="9pt" font-style="normal" font-weight="normal" text-decoration="normal" x="108.27307828333335" y="114.58516837900002" text-anchor="start" dominant-baseline="alphabetic" xml:space="preserve">Insert log in details</text></g><g><path fill="none" stroke="black" paint-order="fill stroke markers" d=" M 89.84361815000001 120.11400641900002 L 215.37703428433335 120.11400641900002" stroke-miterlimit="10" stroke-width="1.1518412583333333" stroke-dasharray=""/><g transform="translate(226.75722591666667,120.11400641900002) translate(-226.75722591666667,-120.11400641900002)"><path fill="black" stroke="none" paint-order="stroke fill markers" d=" M 215.23881333333333 114.35480012733335 L 226.75722591666667 120.11400641900002 L 215.23881333333333 125.87321271066669 Z"/></g></g><g><g><rect fill="white" stroke="none" x="321.28476363083337" y="140.847149069" width="171.58412853" height="17.96872363"/></g><text fill="black" stroke="none" font-family="sans-serif" font-size="9pt" font-style="normal" font-weight="normal" text-decoration="normal" x="323.3580778958334" y="153.28703465900003" text-anchor="start" dominant-baseline="alphabetic" xml:space="preserve">Authentication with login details</text></g><g><path fill="none" stroke="black" paint-order="fill stroke markers" d=" M 240.57932101666668 158.815872699 L 562.1941431426667 158.815872699" stroke-miterlimit="10" stroke-width="1.1518412583333333" stroke-dasharray=""/><g transform="translate(573.574334775,158.815872699) translate(-573.574334775,-158.815872699)"><path fill="black" stroke="none" paint-order="stroke fill markers" d=" M 562.0559221916667 153.05666640733335 L 573.574334775 158.815872699 L 562.0559221916667 164.57507899066667 Z"/></g></g><g><g><rect fill="white" stroke="none" x="279.271404385" y="179.549015349" width="104.875144155" height="17.96872363"/></g><text fill="black" stroke="none" font-family="sans-serif" font-size="9pt" font-style="normal" font-weight="normal" text-decoration="normal" x="281.34471865" y="191.98890093900002" text-anchor="start" dominant-baseline="alphabetic" xml:space="preserve">User authenticated</text></g><g><path fill="none" stroke="black" paint-order="fill stroke markers" d=" M 573.574334775 197.517738979 L 101.22380978233335 197.517738979" stroke-miterlimit="10" stroke-width="1.1518412583333333" stroke-dasharray="5.52883804"/><g transform="translate(89.84361815000001,197.517738979) translate(-89.84361815000001,-197.517738979)"><path fill="black" stroke="none" paint-order="stroke fill markers" d=" M 101.36203073333334 191.75853268733334 L 89.84361815000001 197.517738979 L 101.36203073333334 203.27694527066666 Z"/></g></g><g><g><rect fill="white" stroke="none" x="320.41231872041664" y="218.250881629" width="102.20912853" height="17.96872363"/></g><text fill="black" stroke="none" font-family="sans-serif" font-size="9pt" font-style="normal" font-weight="normal" text-decoration="normal" x="322.48563298541666" y="230.690767219" text-anchor="start" dominant-baseline="alphabetic" xml:space="preserve">Redirected to app </text></g><g><path fill="none" stroke="black" paint-order="fill stroke markers" d=" M 89.84361815000001 236.219605259 L 641.8099561885 236.219605259" stroke-miterlimit="10" stroke-width="1.1518412583333333" stroke-dasharray=""/><g transform="translate(653.1901478208333,236.219605259) translate(-653.1901478208333,-236.219605259)"><path fill="black" stroke="none" paint-order="stroke fill markers" d=" M 641.6717352375 230.46039896733333 L 653.1901478208333 236.219605259 L 641.6717352375 241.97881155066665 Z"/></g></g><g><g><rect fill="white" stroke="none" x="354.63925581833337" y="294.272404679" width="104.875144155" height="17.96872363"/></g><text fill="black" stroke="none" font-family="sans-serif" font-size="9pt" font-style="normal" font-weight="normal" text-decoration="normal" x="356.7125700833334" y="306.712290269" text-anchor="start" dominant-baseline="alphabetic" xml:space="preserve">User authenticated</text></g><g><path fill="none" stroke="black" paint-order="fill stroke markers" d=" M 573.574334775 312.241128309 L 251.959512649 312.241128309" stroke-miterlimit="10" stroke-width="1.1518412583333333" stroke-dasharray="5.52883804"/><g transform="translate(240.57932101666668,312.241128309) translate(-240.57932101666668,-312.241128309)"><path fill="black" stroke="none" paint-order="stroke fill markers" d=" M 252.09773360000003 306.4819220173333 L 240.57932101666668 312.241128309 L 252.09773360000003 318.00033460066663 Z"/></g></g><g><g><rect fill="white" stroke="none" x="320.41231872041664" y="332.97427095899997" width="102.20912853" height="17.96872363"/></g><text fill="black" stroke="none" font-family="sans-serif" font-size="9pt" font-style="normal" font-weight="normal" text-decoration="normal" x="322.48563298541666" y="345.414156549" text-anchor="start" dominant-baseline="alphabetic" xml:space="preserve">Redirected to app </text></g><g><path fill="none" stroke="black" paint-order="fill stroke markers" d=" M 89.84361815000001 350.94299458899997 L 641.8099561885 350.94299458899997" stroke-miterlimit="10" stroke-width="1.1518412583333333" stroke-dasharray=""/><g transform="translate(653.1901478208333,350.94299458899997) translate(-653.1901478208333,-350.94299458899997)"><path fill="black" stroke="none" paint-order="stroke fill markers" d=" M 641.6717352375 345.1837882973333 L 653.1901478208333 350.94299458899997 L 641.6717352375 356.7022008806666 Z"/></g></g><g><g><rect fill="white" stroke="none" x="352.29843550583337" y="408.99579400899995" width="109.55678478" height="17.96872363"/></g><text fill="black" stroke="none" font-family="sans-serif" font-size="9pt" font-style="normal" font-weight="normal" text-decoration="normal" x="354.3717497708334" y="421.43567959899997" text-anchor="start" dominant-baseline="alphabetic" xml:space="preserve">Authenticated failed</text></g><g><path fill="none" stroke="black" paint-order="fill stroke markers" d=" M 573.574334775 426.96451763899995 L 251.959512649 426.96451763899995" stroke-miterlimit="10" stroke-width="1.1518412583333333" stroke-dasharray="5.52883804"/><g transform="translate(240.57932101666668,426.96451763899995) translate(-240.57932101666668,-426.96451763899995)"><path fill="black" stroke="none" paint-order="stroke fill markers" d=" M 252.09773360000003 421.2053113473333 L 240.57932101666668 426.96451763899995 L 252.09773360000003 432.7237239306666 Z"/></g></g><g><g><rect fill="white" stroke="none" x="373.32773238083337" y="447.69766028899994" width="67.49819103" height="17.96872363"/></g><text fill="black" stroke="none" font-family="sans-serif" font-size="9pt" font-style="normal" font-weight="normal" text-decoration="normal" x="375.4010466458334" y="460.13754587899996" text-anchor="start" dominant-baseline="alphabetic" xml:space="preserve">User exist? </text></g><g><path fill="none" stroke="black" paint-order="fill stroke markers" d=" M 240.57932101666668 465.66638391899994 L 562.1941431426667 465.66638391899994" stroke-miterlimit="10" stroke-width="1.1518412583333333" stroke-dasharray=""/><g transform="translate(573.574334775,465.66638391899994) translate(-573.574334775,-465.66638391899994)"><path fill="black" stroke="none" paint-order="stroke fill markers" d=" M 562.0559221916667 459.9071776273333 L 573.574334775 465.66638391899994 L 562.0559221916667 471.4255902106666 Z"/></g></g><g><g><rect fill="white" stroke="none" x="368.32382613083337" y="523.719183339" width="77.50600353" height="17.96872363"/></g><text fill="black" stroke="none" font-family="sans-serif" font-size="9pt" font-style="normal" font-weight="normal" text-decoration="normal" x="370.3971403958334" y="536.1590689289999" text-anchor="start" dominant-baseline="alphabetic" xml:space="preserve">User not exist</text></g><g><path fill="none" stroke="black" paint-order="fill stroke markers" d=" M 573.574334775 541.687906969 L 251.959512649 541.687906969" stroke-miterlimit="10" stroke-width="1.1518412583333333" stroke-dasharray="5.52883804"/><g transform="translate(240.57932101666668,541.687906969) translate(-240.57932101666668,-541.687906969)"><path fill="black" stroke="none" paint-order="stroke fill markers" d=" M 252.09773360000003 535.9287006773333 L 240.57932101666668 541.687906969 L 252.09773360000003 547.4471132606667 Z"/></g></g><g><g><rect fill="white" stroke="none" x="117.43511558083335" y="562.421049619" width="81.730612905" height="17.96872363"/></g><text fill="black" stroke="none" font-family="sans-serif" font-size="9pt" font-style="normal" font-weight="normal" text-decoration="normal" x="119.50842984583335" y="574.8609352089999" text-anchor="start" dominant-baseline="alphabetic" xml:space="preserve">Want register?</text></g><g><path fill="none" stroke="black" paint-order="fill stroke markers" d=" M 226.75722591666667 580.389773249 L 101.22380978233335 580.389773249" stroke-miterlimit="10" stroke-width="1.1518412583333333" stroke-dasharray=""/><g transform="translate(89.84361815000001,580.389773249) translate(-89.84361815000001,-580.389773249)"><path fill="black" stroke="none" paint-order="stroke fill markers" d=" M 101.36203073333334 574.6305669573333 L 89.84361815000001 580.389773249 L 101.36203073333334 586.1489795406667 Z"/></g></g><g><g><rect fill="white" stroke="none" x="378.33163863083337" y="638.442572669" width="57.49037853" height="17.96872363"/></g><text fill="black" stroke="none" font-family="sans-serif" font-size="9pt" font-style="normal" font-weight="normal" text-decoration="normal" x="380.4049528958334" y="650.8824582589999" text-anchor="start" dominant-baseline="alphabetic" xml:space="preserve">User exist</text></g><g><path fill="none" stroke="black" paint-order="fill stroke markers" d=" M 573.574334775 656.411296299 L 251.959512649 656.411296299" stroke-miterlimit="10" stroke-width="1.1518412583333333" stroke-dasharray="5.52883804"/><g transform="translate(240.57932101666668,656.411296299) translate(-240.57932101666668,-656.411296299)"><path fill="black" stroke="none" paint-order="stroke fill markers" d=" M 252.09773360000003 650.6520900073333 L 240.57932101666668 656.411296299 L 252.09773360000003 662.1705025906667 Z"/></g></g><g><g><rect fill="white" stroke="none" x="109.53374839333335" y="677.144438949" width="97.53334728" height="17.96872363"/></g><text fill="black" stroke="none" font-family="sans-serif" font-size="9pt" font-style="normal" font-weight="normal" text-decoration="normal" x="111.60706265833335" y="689.5843245389999" text-anchor="start" dominant-baseline="alphabetic" xml:space="preserve">Invalid credential </text></g><g><path fill="none" stroke="black" paint-order="fill stroke markers" d=" M 226.75722591666667 695.113162579 L 101.22380978233335 695.113162579" stroke-miterlimit="10" stroke-width="1.1518412583333333" stroke-dasharray=""/><g transform="translate(89.84361815000001,695.113162579) translate(-89.84361815000001,-695.113162579)"><path fill="black" stroke="none" paint-order="stroke fill markers" d=" M 101.36203073333334 689.3539562873333 L 89.84361815000001 695.113162579 L 101.36203073333334 700.8723688706667 Z"/></g></g><g><g><rect fill="white" stroke="none" x="109.21148276833335" y="757.312590529" width="98.17787853" height="17.96872363"/></g><text fill="black" stroke="none" font-family="sans-serif" font-size="9pt" font-style="normal" font-weight="normal" text-decoration="normal" x="111.28479703333335" y="769.7524761189999" text-anchor="start" dominant-baseline="alphabetic" xml:space="preserve">User click sind up</text></g><g><path fill="none" stroke="black" paint-order="fill stroke markers" d=" M 89.84361815000001 775.281314159 L 215.37703428433335 775.281314159" stroke-miterlimit="10" stroke-width="1.1518412583333333" stroke-dasharray=""/><g transform="translate(226.75722591666667,775.281314159) translate(-226.75722591666667,-775.281314159)"><path fill="black" stroke="none" paint-order="stroke fill markers" d=" M 215.23881333333333 769.5221078673333 L 226.75722591666667 775.281314159 L 215.23881333333333 781.0405204506667 Z"/></g></g><g><g><rect fill="white" stroke="none" x="256.93546688500004" y="796.014456809" width="138.214987905" height="17.96872363"/></g><text fill="black" stroke="none" font-family="sans-serif" font-size="9pt" font-style="normal" font-weight="normal" text-decoration="normal" x="259.00878115000006" y="808.4543423989999" text-anchor="start" dominant-baseline="alphabetic" xml:space="preserve">Redirected to registration</text></g><g><path fill="none" stroke="black" paint-order="fill stroke markers" d=" M 240.57932101666668 813.983180439 L 400.1264090260001 813.983180439" stroke-miterlimit="10" stroke-width="1.1518412583333333" stroke-dasharray=""/><g transform="translate(411.5066006583334,813.983180439) translate(-411.5066006583334,-813.983180439)"><path fill="black" stroke="none" paint-order="stroke fill markers" d=" M 399.9881880750001 808.2239741473333 L 411.5066006583334 813.983180439 L 399.9881880750001 819.7423867306667 Z"/></g></g><g><g><rect fill="white" stroke="none" x="207.24339670166674" y="834.716323089" width="86.863425405" height="17.96872363"/></g><text fill="black" stroke="none" font-family="sans-serif" font-size="9pt" font-style="normal" font-weight="normal" text-decoration="normal" x="209.31671096666673" y="847.1562086789999" text-anchor="start" dominant-baseline="alphabetic" xml:space="preserve">Request details</text></g><g><path fill="none" stroke="black" paint-order="fill stroke markers" d=" M 411.5066006583334 852.685046719 L 101.22380978233335 852.685046719" stroke-miterlimit="10" stroke-width="1.1518412583333333" stroke-dasharray=""/><g transform="translate(89.84361815000001,852.685046719) translate(-89.84361815000001,-852.685046719)"><path fill="black" stroke="none" paint-order="stroke fill markers" d=" M 101.36203073333334 846.9258404273332 L 89.84361815000001 852.685046719 L 101.36203073333334 858.4442530106667 Z"/></g></g><g><g><rect fill="white" stroke="none" x="206.57835763916674" y="873.418189369" width="88.19350353" height="17.96872363"/></g><text fill="black" stroke="none" font-family="sans-serif" font-size="9pt" font-style="normal" font-weight="normal" text-decoration="normal" x="208.65167190416673" y="885.8580749589999" text-anchor="start" dominant-baseline="alphabetic" xml:space="preserve">Details entered </text></g><g><path fill="none" stroke="black" paint-order="fill stroke markers" d=" M 89.84361815000001 891.386912999 L 400.1264090260001 891.386912999" stroke-miterlimit="10" stroke-width="1.1518412583333333" stroke-dasharray="5.52883804"/><g transform="translate(411.5066006583334,891.386912999) translate(-411.5066006583334,-891.386912999)"><path fill="black" stroke="none" paint-order="stroke fill markers" d=" M 399.9881880750001 885.6277067073332 L 411.5066006583334 891.386912999 L 399.9881880750001 897.1461192906667 Z"/></g></g><g><g><rect fill="white" stroke="none" x="460.03054475166664" y="912.1200556489999" width="78.84194103" height="17.96872363"/></g><text fill="black" stroke="none" font-family="sans-serif" font-size="9pt" font-style="normal" font-weight="normal" text-decoration="normal" x="462.10385901666666" y="924.5599412389998" text-anchor="start" dominant-baseline="alphabetic" xml:space="preserve">Register user </text></g><g><path fill="none" stroke="black" paint-order="fill stroke markers" d=" M 425.32869575833337 930.0887792789999 L 562.1941431426667 930.0887792789999" stroke-miterlimit="10" stroke-width="1.1518412583333333" stroke-dasharray=""/><g transform="translate(573.574334775,930.0887792789999) translate(-573.574334775,-930.0887792789999)"><path fill="black" stroke="none" paint-order="stroke fill markers" d=" M 562.0559221916667 924.3295729873332 L 573.574334775 930.0887792789999 L 562.0559221916667 935.8479855706667 Z"/></g></g><g><g><rect fill="white" stroke="none" x="441.68484162666664" y="988.141578699" width="115.53334728" height="17.96872363"/></g><text fill="black" stroke="none" font-family="sans-serif" font-size="9pt" font-style="normal" font-weight="normal" text-decoration="normal" x="443.75815589166666" y="1000.5814642889999" text-anchor="start" dominant-baseline="alphabetic" xml:space="preserve">Registration succese</text></g><g><path fill="none" stroke="black" paint-order="fill stroke markers" d=" M 573.574334775 1006.110302329 L 436.7088873906667 1006.110302329" stroke-miterlimit="10" stroke-width="1.1518412583333333" stroke-dasharray="5.52883804"/><g transform="translate(425.32869575833337,1006.110302329) translate(-425.32869575833337,-1006.110302329)"><path fill="black" stroke="none" paint-order="stroke fill markers" d=" M 436.8471083416667 1000.3510960373333 L 425.32869575833337 1006.110302329 L 436.8471083416667 1011.8695086206667 Z"/></g></g><g><g><rect fill="white" stroke="none" x="180.43675607666674" y="1026.8434449790002" width="140.476706655" height="17.96872363"/></g><text fill="black" stroke="none" font-family="sans-serif" font-size="9pt" font-style="normal" font-weight="normal" text-decoration="normal" x="182.51007034166673" y="1039.2833305690003" text-anchor="start" dominant-baseline="alphabetic" xml:space="preserve">You have been registered</text></g><g><path fill="none" stroke="black" paint-order="fill stroke markers" d=" M 411.5066006583334 1044.812168609 L 101.22380978233335 1044.812168609" stroke-miterlimit="10" stroke-width="1.1518412583333333" stroke-dasharray=""/><g transform="translate(89.84361815000001,1044.812168609) translate(-89.84361815000001,-1044.812168609)"><path fill="black" stroke="none" paint-order="stroke fill markers" d=" M 101.36203073333334 1039.0529623173334 L 89.84361815000001 1044.812168609 L 101.36203073333334 1050.5713749006668 Z"/></g></g><g><g><rect fill="white" stroke="none" x="449.35183381416664" y="1102.864968029" width="100.199362905" height="17.96872363"/></g><text fill="black" stroke="none" font-family="sans-serif" font-size="9pt" font-style="normal" font-weight="normal" text-decoration="normal" x="451.42514807916666" y="1115.3048536190001" text-anchor="start" dominant-baseline="alphabetic" xml:space="preserve">Registration failed</text></g><g><path fill="none" stroke="black" paint-order="fill stroke markers" d=" M 573.574334775 1120.8336916590001 L 436.7088873906667 1120.8336916590001" stroke-miterlimit="10" stroke-width="1.1518412583333333" stroke-dasharray="5.52883804"/><g transform="translate(425.32869575833337,1120.8336916590001) translate(-425.32869575833337,-1120.8336916590001)"><path fill="black" stroke="none" paint-order="stroke fill markers" d=" M 436.8471083416667 1115.0744853673334 L 425.32869575833337 1120.8336916590001 L 436.8471083416667 1126.5928979506668 Z"/></g></g><g><g><rect fill="white" stroke="none" x="167.88304513916674" y="1141.5668343090001" width="165.58412853" height="17.96872363"/></g><text fill="black" stroke="none" font-family="sans-serif" font-size="9pt" font-style="normal" font-weight="normal" text-decoration="normal" x="169.95635940416673" y="1154.0067198990002" text-anchor="start" dominant-baseline="alphabetic" xml:space="preserve">Failed, check the entered data</text></g><g><path fill="none" stroke="black" paint-order="fill stroke markers" d=" M 411.5066006583334 1159.5355579390002 L 101.22380978233335 1159.5355579390002" stroke-miterlimit="10" stroke-width="1.1518412583333333" stroke-dasharray=""/><g transform="translate(89.84361815000001,1159.5355579390002) translate(-89.84361815000001,-1159.5355579390002)"><path fill="black" stroke="none" paint-order="stroke fill markers" d=" M 101.36203073333334 1153.7763516473335 L 89.84361815000001 1159.5355579390002 L 101.36203073333334 1165.294764230667 Z"/></g></g><g><g><rect fill="white" stroke="none" x="493.2773734870833" y="1201.0018432390002" width="98.875144155" height="17.96872363"/></g><text fill="black" stroke="none" font-family="sans-serif" font-size="9pt" font-style="normal" font-weight="normal" text-decoration="normal" x="495.35068775208333" y="1213.4417288290003" text-anchor="start" dominant-baseline="alphabetic" xml:space="preserve">Redirected to app</text></g><g><path fill="none" stroke="black" paint-order="fill stroke markers" d=" M 425.32869575833337 1218.9705668690003 L 648.7210037385 1218.9705668690003" stroke-miterlimit="10" stroke-width="1.1518412583333333" stroke-dasharray=""/><g transform="translate(660.1011953708334,1218.9705668690003) translate(-660.1011953708334,-1218.9705668690003)"><path fill="black" stroke="none" paint-order="stroke fill markers" d=" M 648.5827827875 1213.2113605773336 L 660.1011953708334 1218.9705668690003 L 648.5827827875 1224.729773160667 Z"/></g></g><g><g/><path fill="none" stroke="black" paint-order="fill stroke markers" d=" M 13.822095100000006 256.952747909 L 701.5674806708333 256.952747909 L 701.5674806708333 736.579447879 L 13.822095100000006 736.579447879 L 13.822095100000006 256.952747909 Z" stroke-miterlimit="10" stroke-width="1.9745850142857144" stroke-dasharray=""/><path fill="white" stroke="black" paint-order="fill stroke markers" d=" M 13.822095100000006 256.952747909 L 13.822095100000006 273.539262029 L 52.662116598828135 273.539262029 L 60.95537365882814 265.24600496899996 L 60.95537365882814 256.952747909 L 13.822095100000006 256.952747909" stroke-miterlimit="10" stroke-width="1.9745850142857144" stroke-dasharray=""/><text fill="black" stroke="none" font-family="sans-serif" font-size="7.2pt" font-style="normal" font-weight="bold" text-decoration="normal" x="27.644190200000004" y="268.010423989" text-anchor="start" dominant-baseline="alphabetic" xml:space="preserve">alt</text><g><rect fill="white" stroke="none" x="72.70415449382814" y="258.058515517" width="95.83533397433594" height="14.374978904"/></g><text fill="black" stroke="none" font-family="sans-serif" font-size="7.2pt" font-style="normal" font-weight="bold" text-decoration="normal" x="74.77746875882814" y="268.010423989" text-anchor="start" dominant-baseline="alphabetic" xml:space="preserve">[authenticated user]</text><g><path fill="none" stroke="black" paint-order="fill stroke markers" d=" M 13.822095100000006 371.67613723899996 L 701.5674806708333 371.67613723899996" stroke-miterlimit="10" stroke-width="1.9745850142857144" stroke-dasharray="3.455523775"/></g><g/></g><g/><g><g/><path fill="none" stroke="black" paint-order="fill stroke markers" d=" M 27.644190200000004 486.39952656899993 L 628.8627151750001 486.39952656899993 L 628.8627151750001 715.846305229 L 27.644190200000004 715.846305229 L 27.644190200000004 486.39952656899993 Z" stroke-miterlimit="10" stroke-width="1.9745850142857144" stroke-dasharray=""/><path fill="white" stroke="black" paint-order="fill stroke markers" d=" M 27.644190200000004 486.39952656899993 L 27.644190200000004 502.98604068899994 L 66.48421169882813 502.98604068899994 L 74.77746875882814 494.6927836289999 L 74.77746875882814 486.39952656899993 L 27.644190200000004 486.39952656899993" stroke-miterlimit="10" stroke-width="1.9745850142857144" stroke-dasharray=""/><text fill="black" stroke="none" font-family="sans-serif" font-size="7.2pt" font-style="normal" font-weight="bold" text-decoration="normal" x="41.4662853" y="497.45720264899995" text-anchor="start" dominant-baseline="alphabetic" xml:space="preserve">alt</text><g><rect fill="white" stroke="none" x="86.52624959382814" y="487.50529417699994" width="87.30026927707031" height="14.374978904"/></g><text fill="black" stroke="none" font-family="sans-serif" font-size="7.2pt" font-style="normal" font-weight="bold" text-decoration="normal" x="88.59956385882813" y="497.45720264899995" text-anchor="start" dominant-baseline="alphabetic" xml:space="preserve">[user do not exist]</text><g><path fill="none" stroke="black" paint-order="fill stroke markers" d=" M 27.644190200000004 601.1229158990001 L 628.8627151750001 601.1229158990001" stroke-miterlimit="10" stroke-width="1.9745850142857144" stroke-dasharray="3.455523775"/></g><g/></g><g/><g><g/><path fill="none" stroke="black" paint-order="fill stroke markers" d=" M 27.644190200000004 950.821921929 L 628.8627151750001 950.821921929 L 628.8627151750001 1180.2687005890002 L 27.644190200000004 1180.2687005890002 L 27.644190200000004 950.821921929 Z" stroke-miterlimit="10" stroke-width="1.9745850142857144" stroke-dasharray=""/><path fill="white" stroke="black" paint-order="fill stroke markers" d=" M 27.644190200000004 950.821921929 L 27.644190200000004 967.408436049 L 66.48421169882813 967.408436049 L 74.77746875882814 959.115178989 L 74.77746875882814 950.821921929 L 27.644190200000004 950.821921929" stroke-miterlimit="10" stroke-width="1.9745850142857144" stroke-dasharray=""/><text fill="black" stroke="none" font-family="sans-serif" font-size="7.2pt" font-style="normal" font-weight="bold" text-decoration="normal" x="41.4662853" y="961.879598009" text-anchor="start" dominant-baseline="alphabetic" xml:space="preserve">alt</text><g><rect fill="white" stroke="none" x="86.52624959382814" y="951.927689537" width="79.85668102023438" height="14.374978904"/></g><text fill="black" stroke="none" font-family="sans-serif" font-size="7.2pt" font-style="normal" font-weight="bold" text-decoration="normal" x="88.59956385882813" y="961.879598009" text-anchor="start" dominant-baseline="alphabetic" xml:space="preserve">[user registered]</text><g><path fill="none" stroke="black" paint-order="fill stroke markers" d=" M 27.644190200000004 1065.545311259 L 628.8627151750001 1065.545311259" stroke-miterlimit="10" stroke-width="1.9745850142857144" stroke-dasharray="3.455523775"/></g><g/></g><g/></g><g/><g/><g/><g/><g/></g></svg>